HIERARCHY
ROOT MidHip
{
    OFFSET 0.0 0.0 0.0
    CHANNELS 6 Xposition Yposition Zposition Zrotation Xrotation Yrotation
    JOINT Spine
    {
        OFFSET 0.0 0.0 14.842398303884591
        CHANNELS 3 Zrotation Xrotation Yrotation
        JOINT MidShoulder
        {
            OFFSET 0.0 0.0 14.842398303884591
            CHANNELS 3 Zrotation Xrotation Yrotation
            JOINT Nose
            {
                OFFSET 0.0 0.0 10.827426190890733
                CHANNELS 3 Zrotation Xrotation Yrotation
                End Site
                {
                    OFFSET 0.0 0.0 4.330970476356295
                }
            }
            JOINT RightShoulder
            {
                OFFSET -9.496854833608069 0.0 0.0
                CHANNELS 3 Zrotation Xrotation Yrotation
                JOINT RightElbow
                {
                    OFFSET -12.339048960619944 0.0 0.0
                    CHANNELS 3 Zrotation Xrotation Yrotation
                    JOINT RightWrist
                    {
                        OFFSET -10.574510946310104 0.0 0.0
                        CHANNELS 3 Zrotation Xrotation Yrotation
                        End Site
                        {
                            OFFSET -2.9909233591469 2.9909233591469 0.0
                        }
                        End Site
                        {
                            OFFSET -4.229804378524042 0.0 0.0
                        }
                        End Site
                        {
                            OFFSET -2.9909233591469 -2.9909233591469 0.0
                        }
                    }
                }
            }
            JOINT LeftShoulder
            {
                OFFSET 9.496854833608069 0.0 0.0
                CHANNELS 3 Zrotation Xrotation Yrotation
                JOINT LeftElbow
                {
                    OFFSET 12.339048960619944 0.0 0.0
                    CHANNELS 3 Zrotation Xrotation Yrotation
                    JOINT LeftWrist
                    {
                        OFFSET 10.574510946310104 0.0 0.0
                        CHANNELS 3 Zrotation Xrotation Yrotation
                        End Site
                        {
                            OFFSET 2.9909233591469 2.9909233591469 0.0
                        }
                        End Site
                        {
                            OFFSET 4.229804378524042 0.0 0.0
                        }
                        End Site
                        {
                            OFFSET 2.9909233591469 -2.9909233591469 0.0
                        }
                    }
                }
            }
        }
    }
    JOINT RightHip
    {
        OFFSET -5.855554788543574 0.0 0.0
        CHANNELS 3 Zrotation Xrotation Yrotation
        JOINT RightKnee
        {
            OFFSET 0.0 0.0 -19.34177856046098
            CHANNELS 3 Zrotation Xrotation Yrotation
            JOINT RightAnkle
            {
                OFFSET 0.0 0.0 -20.807823028541193
                CHANNELS 3 Zrotation Xrotation Yrotation
                End Site
                {
                    OFFSET 0.0 5.8853411060844305 -5.8853411060844305
                }
                End Site
                {
                    OFFSET 0.0 -5.8853411060844305 -5.8853411060844305
                }
            }
        }
    }
    JOINT LeftHip
    {
        OFFSET 5.855554788543574 0.0 0.0
        CHANNELS 3 Zrotation Xrotation Yrotation
        JOINT LeftKnee
        {
            OFFSET 0.0 0.0 -19.34177856046098
            CHANNELS 3 Zrotation Xrotation Yrotation
            JOINT LeftAnkle
            {
                OFFSET 0.0 0.0 -20.807823028541193
                CHANNELS 3 Zrotation Xrotation Yrotation
                End Site
                {
                    OFFSET 0.0 5.8853411060844305 -5.8853411060844305
                }
                End Site
                {
                    OFFSET 0.0 -5.8853411060844305 -5.8853411060844305
                }
            }
        }
    }
}
MOTION
Frames: 10
Frame Time: 0.03333333333333333
-5.646445464281637 44.1195452987099 -41.10931592190532 7.380248818213691 -74.71055225364557 18.28032844045016 -1.4437849647237497 -9.538388062104039 -7.080400459913934 -3.2094911492929366 -3.714616997269833e-15 -5.017918784598619e-16 0.0 0.0 0.0 24.076718811986257 -3.2579690250363917 -43.804095779291046 127.716014193476 -1.9338237149190742e-14 -1.8348747415196184e-14 33.06479672736885 -0.07470101286102103 0.04863157644793116 -83.1576589193477 -30.5402500120797 44.033202510883854 -75.59972153895654 2.1619760951349366e-14 6.690367619276072e-16 -38.96527231804822 -17.162047823885022 166.5773597798535 -3.275349451610297 -20.858162518619334 -4.911539547894633 0.7954281298368993 10.656779656305611 -1.3545576677983906 7.951386703658791e-16 6.896728590703373e-33 9.939233379573488e-16 -3.0930657615438117 -19.790876643789545 -23.80145606286408 -3.245960450195298 12.151040356459003 1.612245820617447 0.0 -9.93923337957349e-17 0.0
-5.527016672862102 44.173961230120455 -41.08217792875338 6.3839926113636745 -75.43310018121112 17.716051211118224 -1.5426623899037863 -9.02973984635807 -7.861624342842478 -2.2805973312645973 1.4035833118197338e-14 -3.1709456374109515e-16 0.0 0.0 0.0 34.183189763523394 6.5709143567965445 -46.34697628572226 131.7710126816374 1.9491776180818562e-15 -4.3544855950126426e-15 35.266524279980814 10.16917689417578 -7.116739257387673 -75.85015719690657 -22.59409957017967 49.34685835914348 -102.76665499738081 1.1925370734125348e-14 -5.454934485758562e-15 -34.32562643012498 -8.316444318420452 174.35966361660786 -3.581088451251818 -20.239352777747694 -5.202380000779433 0.9883116320791507 11.040550416862494 -1.2048996902786322 -1.987846675914698e-16 0.0 0.0 -3.250352168059493 -18.50509530402261 -24.169905782423655 -3.012291722293162 11.880124026555134 2.2943104770280667 0.0 6.361109362927035e-15 0.0
-5.475228158849812 44.23040447674478 -41.036402792276576 5.531678094251444 -75.9911401793165 17.126943139851317 -1.5751404796753332 -8.480816104412856 -8.243348317893746 -1.7676208772865667 1.2854987629547506e-15 -1.173019009656103e-15 0.0 0.0 1.987846675914698e-16 29.946877102123334 2.6357590790777485 -44.97194047076676 130.76430112942168 -9.578493213814619e-15 -9.63681250442194e-15 34.968850359049604 3.472363565478684 -2.4256263256241613 -74.93830210508854 -23.066487452127294 50.5964611547214 -101.03546612688251 7.94312325150353e-15 -3.624134690458279e-16 -32.228507541348236 -2.768865803824443 178.25564605229982 -3.7298798739491423 -19.436895580962926 -5.8479648518442975 1.0252997129339783 11.048322766304878 -0.23372209053988316 0.0 0.0 0.0 -3.3049568004035113 -17.365797584260296 -24.6487973344677 -2.8238838800718082 11.426437426993171 3.268450238479409 3.4483642953516864e-34 -4.969616689786746e-17 7.951386703658794e-16
-5.431869299827918 44.227476786457224 -41.01619653972247 6.42069717604919 -76.1825034603171 17.971459927202122 -1.5328079998219593 -8.29187435386143 -8.256453057972285 -1.9878247182082889 -1.2869370658832031e-14 -2.2326792374076013e-16 0.0 0.0 0.0 26.208040314844645 -2.1685781360477967 -43.98189437153536 130.72039325581102 -3.7928906277079014e-15 -6.98845699688904e-15 30.138724007547985 8.66919882309242 -5.00126640687016 -73.25483464229362 -21.093509866312584 51.77271372105254 -106.61010539051144 2.375693211004868e-15 3.1878236141552494e-15 -31.57665642532971 4.081317306052647 -177.4951662984402 -3.6930284956485457 -19.337601263457753 -5.820752804212195 1.0586478496897245 11.45633834912897 0.07498472719164012 0.0 0.0 -3.975693351829396e-16 -3.287090252473643 -17.34892967534157 -24.660655692011417 -2.937511398110028 11.820954217140896 4.185632955874468 0.0 0.0 -7.951386703658792e-16
-5.449492625941462 44.261501174790816 -41.01818216532903 5.945220170558011 -76.02468682368794 17.53311955425454 -1.5351416655198686 -8.518738728861386 -8.302217854741928 -1.7085806419107454 1.4851574628033916e-14 6.190695770910084e-16 0.0 0.0 -1.987846675914698e-16 25.988819728867387 -2.5830786567921113 -44.13636753287725 127.91292718283803 -6.2839582491149036e-15 1.2859215076333994e-14 31.349399266716723 7.729628592730296 -4.684086805187686 -73.30878828833524 -23.535436683581924 50.875395639566435 -100.09413598029393 1.026310430039427e-14 -7.560144504757283e-15 -31.37181407103908 0.6650940799838504 -179.59448967375607 -3.63458646542328 -19.516108546303467 -5.979239777531139 0.9983512520807262 11.75435832747843 0.46355431164565264 0.0 0.0 0.0 -3.1962969131211514 -17.314428476215866 -24.948193140064486 -2.951537876806235 11.403593284155129 4.67856802055883 0.0 0.0 7.951386703658792e-16
-5.433611966045084 44.286321418598796 -41.00817663983256 6.107794204152618 -76.04180281032093 17.690414410606486 -1.4979282730301793 -8.51648025305881 -8.317968746584624 -1.7805425337474825 -3.0901923662876496e-15 -1.0420631167446914e-15 0.0 0.0 0.0 24.99259234686368 -4.365094265588657 -44.18377295975695 126.0865567175979 -1.1339939377041859e-14 -5.767202461634878e-15 37.44937985362841 13.552205961610465 -10.175112043282086 -73.50844301889667 -23.86745750378193 50.56852119826893 -97.58252888808548 3.2140326293023774e-15 -5.985308357210896e-15 -34.47839487755696 3.7103323841860187 -177.45547326178672 -3.529216577342015 -19.423988330871918 -5.854832535250301 0.9694184579141393 11.746446936398534 0.2779468793257181 0.0 0.0 7.951386703658791e-16 -3.123120815974966 -17.332802667971283 -24.914875447826812 -3.0168688205832384 11.473572856714144 4.769656785081617 0.0 0.0 0.0
-5.433611966045084 44.286321418598796 -41.00817663983256 6.101719135406792 -76.03108057052823 17.655838144292996 -1.4843020696592193 -8.46479585777663 -8.236575818721722 -1.6003726734513792 -3.4492376543514446e-17 -1.9928580316914998e-16 1.9878466759146985e-16 0.0 0.0 25.351371456913302 -3.5309952196446135 -43.89755765051955 125.64354789851281 -1.0591183887811583e-14 -7.225694097003905e-15 35.12492906842169 10.579770477633552 -7.359501727062672 -73.61125023702544 -24.46928255273736 50.19404485230118 -95.70841726787043 7.91770044314252e-15 -7.311430802398365e-16 -30.97678862175603 1.750957536858344 -178.9491652112966 -3.5212082613531006 -19.43639290416523 -5.825172400980247 0.9694184579141393 11.746446936398534 0.2779468793257181 0.0 0.0 7.951386703658791e-16 -3.1162191803757016 -17.34500895262599 -24.88548174392816 -2.967845195454405 11.292121443298743 4.984459872644403 0.0 0.0 7.951386703658792e-16
-5.443759720036163 44.32085100053135 -40.996216620701205 5.99566634865615 -76.04399469697634 17.578873685931566 -1.5491618788756598 -8.529554154664966 -8.159618653081058 -1.3300293597323445 -2.8978012162987676e-15 -8.288276395207565e-16 0.0 0.0 0.0 25.963804373372874 -2.686131936383548 -44.501511217662376 125.53352732521961 5.655987188096108e-15 2.9109313381133957e-15 34.22678954154446 10.705221853706458 -7.20210865583529 -74.10149922696212 -25.707698003721422 50.21420056046013 -92.62328183749425 -1.8536133090534655e-15 7.268697796400555e-15 -32.79817607311593 2.513270322890889 -178.38137110304663 -3.642866288381646 -19.416571523872342 -5.899207745359814 1.0473669240080525 11.935153383475416 0.5992969125458572 0.0 0.0 -3.975693351829396e-16 -3.198614547512225 -17.19954783097862 -24.95907248327471 -2.8841702232994133 11.200958196753684 5.008572930837874 0.0 0.0 7.951386703658792e-16
-5.443759720036163 44.32085100053135 -40.996216620701205 6.0697389873473595 -76.18094694275283 17.561812097747264 -1.51099567626528 -8.396048248319586 -8.066032832621072 -1.3300293597323445 -2.8978012162987676e-15 -8.288276395207565e-16 0.0 0.0 0.0 24.779840612866902 -4.68226656517012 -44.07299676206332 124.14400229023593 6.3650994820017725e-15 1.574230901673451e-15 33.749887510044566 8.515515390213181 -5.650546483280384 -74.99535588026214 -26.43315572630712 49.630591566408256 -88.84022068672823 -1.6673100702161135e-14 1.9286163232481627e-14 -31.007742835947948 -1.9510982931894738 178.82769323257855 -3.5666103931113073 -19.198530794705167 -5.696962674133108 1.054092243282433 11.792412232704491 0.4243156085689709 -3.9756933518293955e-16 -6.361109362927033e-15 -2.2069531490250793e-32 -3.1445161224490517 -17.068748322136766 -24.85824431725882 -2.8841702232994133 11.200958196753684 5.008572930837874 0.0 0.0 7.951386703658792e-16
-5.443759720036163 44.32085100053135 -40.996216620701205 6.063948852663203 -76.17033743822454 17.527871373946766 -1.5087346699793796 -8.407323785531496 -8.037697796570281 -1.3300293597323445 -2.8978012162987676e-15 -8.288276395207565e-16 0.0 0.0 0.0 23.875923179063893 -7.772239771996301 -42.46336546331472 123.67407719078281 1.3467761137238262e-14 1.7986376630023285e-15 29.159768992520572 3.0475082818668455 -1.6990878089755164 -75.82399920977568 -26.118437346451408 49.70673860205698 -87.43464039825636 2.097396410293267e-15 -6.7956286469307905e-15 -31.187433202863712 -4.533145586188505 177.26093860164139 -3.558872471004135 -19.210803213739833 -5.667726630894637 1.054092243282433 11.792412232704491 0.4243156085689709 -3.9756933518293955e-16 -6.361109362927033e-15 -2.2069531490250793e-32 -3.1549838630829314 -17.168334399074176 -24.811336796917953 -2.932412012152702 11.401944313835186 5.111300246410117 -7.951386703658792e-16 6.361109362927033e-15 7.951386703658792e-16
